<?xml version="1.0" standalone="no"?>
<!DOCTYPE svg PUBLIC "-//W3C//DTD SVG 20010904//EN"
 "http://www.w3.org/TR/2001/REC-SVG-20010904/DTD/svg10.dtd">
<svg version="1.0" xmlns="http://www.w3.org/2000/svg"
 width="240.000000pt" height="240.000000pt" viewBox="0 0 240.000000 240.000000"
 preserveAspectRatio="xMidYMid meet">
<metadata>
Created by potrace 1.11, written by Peter Selinger 2001-2013
</metadata>
<g transform="translate(0.000000,240.000000) scale(0.100000,-0.100000)"
fill="#000000" stroke="none">
<path d="M1101 2346 c-1 -110 -57 -177 -226 -267 -216 -115 -275 -190 -278
-354 l-1 -47 -60 -30 c-78 -39 -164 -127 -200 -203 -34 -71 -43 -178 -21 -252
18 -58 66 -130 113 -165 l35 -28 737 0 737 0 29 23 c87 67 126 147 130 267 2
73 -1 94 -24 150 -32 80 -113 166 -190 201 l-52 24 0 47 c0 27 0 50 0 53 0 3
-10 31 -21 62 -39 104 -115 178 -222 214 -48 16 -52 21 -59 56 -18 90 -78 183
-147 229 -53 35 -140 63 -214 69 l-65 6 -1 -55z m218 -265 c22 -52 29 -125 17
-184 -8 -37 -8 -37 16 -28 14 5 46 8 71 6 167 -15 261 -177 202 -346 -8 -23
-15 -43 -15 -45 0 -2 17 -1 37 2 55 9 116 -4 162 -34 76 -49 110 -159 71 -232
-11 -20 -16 -20 -679 -20 -757 0 -697 -7 -695 84 1 91 72 187 149 202 31 5 40
2 74 -29 66 -59 146 -78 305 -72 72 3 137 6 144 7 21 2 0 13 -51 26 -173 44
-327 184 -327 300 0 86 49 137 205 213 116 56 179 106 226 180 30 45 34 48 50
33 9 -8 26 -37 38 -63z"/>
<path d="M413 868 c7 -18 87 -221 178 -450 l164 -418 445 0 445 0 52 133 c166
417 251 635 258 657 4 14 11 30 15 35 4 6 12 25 18 43 l11 32 -800 0 -799 0
13 -32z m443 -190 c4 -13 17 -45 30 -73 12 -27 43 -95 68 -150 l46 -100 0 173
0 173 62 -3 62 -3 35 -162 c20 -90 38 -163 41 -163 3 0 21 73 41 163 l35 162
62 3 62 3 2 -170 3 -169 75 169 75 169 73 0 c39 0 72 -3 72 -7 0 -8 -50 -141
-75 -198 -7 -16 -36 -90 -65 -162 l-52 -133 -308 0 -308 0 -96 243 c-53 134
-96 246 -96 250 0 4 33 7 74 7 69 0 75 -2 82 -22z"/>
</g>
</svg>
